<mxfile host="app.diagrams.net" agent="Mozilla/5.0 (Windows NT 10.0; Win64; x64) AppleWebKit/537.36 (KHTML, like Gecko) Chrome/126.0.0.0 Safari/537.36" version="24.7.10">
  <diagram name="第 1 页" id="hqh7gR30OE5MKf-IJ9V2">
    <mxGraphModel dx="3457" dy="1830" grid="1" gridSize="10" guides="1" tooltips="1" connect="1" arrows="1" fold="1" page="1" pageScale="1" pageWidth="827" pageHeight="1169" math="0" shadow="0">
      <root>
        <mxCell id="0" />
        <mxCell id="1" parent="0" />
        <mxCell id="8Ivr_NgXvTZtsLet6FPW-269" value="" style="rounded=0;whiteSpace=wrap;html=1;dashed=1;" vertex="1" parent="1">
          <mxGeometry x="1270.5" y="2800" width="319" height="160" as="geometry" />
        </mxCell>
        <mxCell id="8Ivr_NgXvTZtsLet6FPW-238" value="" style="rounded=0;whiteSpace=wrap;html=1;dashed=1;" vertex="1" parent="1">
          <mxGeometry x="200" y="2420" width="610" height="610" as="geometry" />
        </mxCell>
        <mxCell id="8Ivr_NgXvTZtsLet6FPW-232" value="" style="rounded=0;whiteSpace=wrap;html=1;dashed=1;" vertex="1" parent="1">
          <mxGeometry x="2670" y="1700" width="240" height="142" as="geometry" />
        </mxCell>
        <mxCell id="8Ivr_NgXvTZtsLet6FPW-229" value="" style="rounded=0;whiteSpace=wrap;html=1;dashed=1;" vertex="1" parent="1">
          <mxGeometry x="1940" y="1700" width="320" height="142" as="geometry" />
        </mxCell>
        <mxCell id="8Ivr_NgXvTZtsLet6FPW-222" value="" style="rounded=0;whiteSpace=wrap;html=1;dashed=1;" vertex="1" parent="1">
          <mxGeometry x="1300" y="1700" width="240" height="142" as="geometry" />
        </mxCell>
        <mxCell id="8Ivr_NgXvTZtsLet6FPW-214" value="" style="rounded=0;whiteSpace=wrap;html=1;dashed=1;" vertex="1" parent="1">
          <mxGeometry x="2800" y="2016" width="240" height="150" as="geometry" />
        </mxCell>
        <mxCell id="8Ivr_NgXvTZtsLet6FPW-154" value="" style="rounded=0;whiteSpace=wrap;html=1;dashed=1;" vertex="1" parent="1">
          <mxGeometry x="960" y="2026" width="510" height="130" as="geometry" />
        </mxCell>
        <mxCell id="8Ivr_NgXvTZtsLet6FPW-141" value="" style="rounded=0;whiteSpace=wrap;html=1;dashed=1;" vertex="1" parent="1">
          <mxGeometry x="1540" y="1318" width="470" height="150" as="geometry" />
        </mxCell>
        <mxCell id="8Ivr_NgXvTZtsLet6FPW-158" value="" style="rounded=0;whiteSpace=wrap;html=1;dashed=1;" vertex="1" parent="1">
          <mxGeometry x="170" y="115" width="400" height="215" as="geometry" />
        </mxCell>
        <mxCell id="8Ivr_NgXvTZtsLet6FPW-149" value="" style="rounded=0;whiteSpace=wrap;html=1;dashed=1;" vertex="1" parent="1">
          <mxGeometry x="2500" y="1320" width="240" height="150" as="geometry" />
        </mxCell>
        <mxCell id="8Ivr_NgXvTZtsLet6FPW-119" value="" style="rounded=0;whiteSpace=wrap;html=1;dashed=1;" vertex="1" parent="1">
          <mxGeometry x="200" y="1360" width="590" height="190" as="geometry" />
        </mxCell>
        <mxCell id="8Ivr_NgXvTZtsLet6FPW-107" value="" style="rounded=0;whiteSpace=wrap;html=1;dashed=1;" vertex="1" parent="1">
          <mxGeometry x="2160" y="720" width="240" height="130" as="geometry" />
        </mxCell>
        <mxCell id="8Ivr_NgXvTZtsLet6FPW-74" value="" style="rounded=0;whiteSpace=wrap;html=1;dashed=1;" vertex="1" parent="1">
          <mxGeometry x="370" y="730" width="390" height="130" as="geometry" />
        </mxCell>
        <mxCell id="8Ivr_NgXvTZtsLet6FPW-71" value="" style="rounded=0;whiteSpace=wrap;html=1;dashed=1;" vertex="1" parent="1">
          <mxGeometry x="1710" y="480" width="190" height="170" as="geometry" />
        </mxCell>
        <mxCell id="8Ivr_NgXvTZtsLet6FPW-64" value="" style="rounded=0;whiteSpace=wrap;html=1;dashed=1;" vertex="1" parent="1">
          <mxGeometry x="930" y="480" width="380" height="170" as="geometry" />
        </mxCell>
        <mxCell id="8Ivr_NgXvTZtsLet6FPW-46" value="" style="rounded=0;whiteSpace=wrap;html=1;dashed=1;" vertex="1" parent="1">
          <mxGeometry x="2400" y="10" width="240" height="170" as="geometry" />
        </mxCell>
        <mxCell id="8Ivr_NgXvTZtsLet6FPW-37" value="" style="rounded=0;whiteSpace=wrap;html=1;dashed=1;" vertex="1" parent="1">
          <mxGeometry x="1580" y="10" width="440" height="190" as="geometry" />
        </mxCell>
        <mxCell id="8Ivr_NgXvTZtsLet6FPW-1" value="Zenith Estore" style="rounded=1;whiteSpace=wrap;html=1;" vertex="1" parent="1">
          <mxGeometry x="10" y="240" width="120" height="60" as="geometry" />
        </mxCell>
        <mxCell id="8Ivr_NgXvTZtsLet6FPW-8" style="edgeStyle=orthogonalEdgeStyle;rounded=0;orthogonalLoop=1;jettySize=auto;html=1;exitX=1;exitY=0.5;exitDx=0;exitDy=0;exitPerimeter=0;entryX=0;entryY=0.5;entryDx=0;entryDy=0;" edge="1" parent="1" source="8Ivr_NgXvTZtsLet6FPW-2" target="8Ivr_NgXvTZtsLet6FPW-14">
          <mxGeometry relative="1" as="geometry">
            <mxPoint x="380" y="190" as="targetPoint" />
          </mxGeometry>
        </mxCell>
        <mxCell id="8Ivr_NgXvTZtsLet6FPW-12" value="是" style="edgeLabel;html=1;align=center;verticalAlign=middle;resizable=0;points=[];" vertex="1" connectable="0" parent="8Ivr_NgXvTZtsLet6FPW-8">
          <mxGeometry x="0.07" relative="1" as="geometry">
            <mxPoint as="offset" />
          </mxGeometry>
        </mxCell>
        <mxCell id="8Ivr_NgXvTZtsLet6FPW-23" value="存在" style="edgeLabel;html=1;align=center;verticalAlign=middle;resizable=0;points=[];" vertex="1" connectable="0" parent="8Ivr_NgXvTZtsLet6FPW-8">
          <mxGeometry x="0.0667" y="-3" relative="1" as="geometry">
            <mxPoint as="offset" />
          </mxGeometry>
        </mxCell>
        <mxCell id="8Ivr_NgXvTZtsLet6FPW-11" style="edgeStyle=orthogonalEdgeStyle;rounded=0;orthogonalLoop=1;jettySize=auto;html=1;exitX=1;exitY=0.5;exitDx=0;exitDy=0;exitPerimeter=0;entryX=0;entryY=0.5;entryDx=0;entryDy=0;" edge="1" parent="1" source="8Ivr_NgXvTZtsLet6FPW-2" target="8Ivr_NgXvTZtsLet6FPW-6">
          <mxGeometry relative="1" as="geometry">
            <Array as="points">
              <mxPoint x="320" y="270" />
              <mxPoint x="320" y="450" />
            </Array>
          </mxGeometry>
        </mxCell>
        <mxCell id="8Ivr_NgXvTZtsLet6FPW-13" value="不存在" style="edgeLabel;html=1;align=center;verticalAlign=middle;resizable=0;points=[];" vertex="1" connectable="0" parent="8Ivr_NgXvTZtsLet6FPW-11">
          <mxGeometry x="0.08" y="2" relative="1" as="geometry">
            <mxPoint as="offset" />
          </mxGeometry>
        </mxCell>
        <mxCell id="8Ivr_NgXvTZtsLet6FPW-2" value="查看本地数据库中是否存在" style="shape=cylinder3;whiteSpace=wrap;html=1;boundedLbl=1;backgroundOutline=1;size=15;" vertex="1" parent="1">
          <mxGeometry x="200" y="230" width="60" height="80" as="geometry" />
        </mxCell>
        <mxCell id="8Ivr_NgXvTZtsLet6FPW-54" value="" style="edgeStyle=orthogonalEdgeStyle;rounded=0;orthogonalLoop=1;jettySize=auto;html=1;" edge="1" parent="1" source="8Ivr_NgXvTZtsLet6FPW-6" target="8Ivr_NgXvTZtsLet6FPW-53">
          <mxGeometry relative="1" as="geometry" />
        </mxCell>
        <mxCell id="8Ivr_NgXvTZtsLet6FPW-6" value="调用UCR&quot;OPEN-API-03识别客户接口（根据channel+socialId）查询&quot;，接口会返回手机号和brandmemberId" style="rounded=0;whiteSpace=wrap;html=1;fillColor=#ffe6cc;strokeColor=#d79b00;" vertex="1" parent="1">
          <mxGeometry x="370" y="420" width="190" height="60" as="geometry" />
        </mxCell>
        <mxCell id="8Ivr_NgXvTZtsLet6FPW-50" style="edgeStyle=orthogonalEdgeStyle;rounded=0;orthogonalLoop=1;jettySize=auto;html=1;exitX=0.5;exitY=1;exitDx=0;exitDy=0;entryX=0.5;entryY=0;entryDx=0;entryDy=0;" edge="1" parent="1" source="8Ivr_NgXvTZtsLet6FPW-14" target="8Ivr_NgXvTZtsLet6FPW-6">
          <mxGeometry relative="1" as="geometry">
            <mxPoint x="600" y="320" as="targetPoint" />
          </mxGeometry>
        </mxCell>
        <mxCell id="8Ivr_NgXvTZtsLet6FPW-51" value="不存在" style="edgeLabel;html=1;align=center;verticalAlign=middle;resizable=0;points=[];" vertex="1" connectable="0" parent="8Ivr_NgXvTZtsLet6FPW-50">
          <mxGeometry x="0.0417" y="-2" relative="1" as="geometry">
            <mxPoint as="offset" />
          </mxGeometry>
        </mxCell>
        <mxCell id="8Ivr_NgXvTZtsLet6FPW-14" value="判断客户在本地数据库中是否存在&lt;div&gt;brandmemberId&lt;/div&gt;" style="rhombus;whiteSpace=wrap;html=1;" vertex="1" parent="1">
          <mxGeometry x="380" y="140" width="170" height="120" as="geometry" />
        </mxCell>
        <mxCell id="8Ivr_NgXvTZtsLet6FPW-15" value="调用UCR“OPEN-API-05查看客户详细信息接口(根据手机号查询)”，接口返回客户详细信息" style="rounded=0;whiteSpace=wrap;html=1;fillColor=#ffe6cc;strokeColor=#d79b00;" vertex="1" parent="1">
          <mxGeometry x="1350" y="75" width="160" height="60" as="geometry" />
        </mxCell>
        <mxCell id="8Ivr_NgXvTZtsLet6FPW-38" value="" style="edgeStyle=orthogonalEdgeStyle;rounded=0;orthogonalLoop=1;jettySize=auto;html=1;entryX=0;entryY=0.5;entryDx=0;entryDy=0;" edge="1" parent="1" source="8Ivr_NgXvTZtsLet6FPW-15" target="8Ivr_NgXvTZtsLet6FPW-39">
          <mxGeometry relative="1" as="geometry" />
        </mxCell>
        <mxCell id="8Ivr_NgXvTZtsLet6FPW-24" style="edgeStyle=orthogonalEdgeStyle;rounded=0;orthogonalLoop=1;jettySize=auto;html=1;exitX=1;exitY=0.5;exitDx=0;exitDy=0;entryX=0;entryY=0.5;entryDx=0;entryDy=0;entryPerimeter=0;" edge="1" parent="1" source="8Ivr_NgXvTZtsLet6FPW-1" target="8Ivr_NgXvTZtsLet6FPW-2">
          <mxGeometry relative="1" as="geometry" />
        </mxCell>
        <mxCell id="8Ivr_NgXvTZtsLet6FPW-36" value="" style="edgeStyle=orthogonalEdgeStyle;rounded=0;orthogonalLoop=1;jettySize=auto;html=1;" edge="1" parent="1" source="8Ivr_NgXvTZtsLet6FPW-26" target="8Ivr_NgXvTZtsLet6FPW-15">
          <mxGeometry relative="1" as="geometry" />
        </mxCell>
        <mxCell id="8Ivr_NgXvTZtsLet6FPW-26" value="" style="rounded=0;whiteSpace=wrap;html=1;dashed=1;" vertex="1" parent="1">
          <mxGeometry x="640" y="10" width="640" height="190" as="geometry" />
        </mxCell>
        <mxCell id="8Ivr_NgXvTZtsLet6FPW-27" style="edgeStyle=orthogonalEdgeStyle;rounded=0;orthogonalLoop=1;jettySize=auto;html=1;exitX=1;exitY=0.5;exitDx=0;exitDy=0;entryX=-0.002;entryY=0.542;entryDx=0;entryDy=0;entryPerimeter=0;" edge="1" parent="1" source="8Ivr_NgXvTZtsLet6FPW-14" target="8Ivr_NgXvTZtsLet6FPW-26">
          <mxGeometry relative="1" as="geometry" />
        </mxCell>
        <mxCell id="8Ivr_NgXvTZtsLet6FPW-28" value="存在" style="edgeLabel;html=1;align=center;verticalAlign=middle;resizable=0;points=[];" vertex="1" connectable="0" parent="8Ivr_NgXvTZtsLet6FPW-27">
          <mxGeometry x="0.0105" relative="1" as="geometry">
            <mxPoint as="offset" />
          </mxGeometry>
        </mxCell>
        <mxCell id="8Ivr_NgXvTZtsLet6FPW-31" value="" style="edgeStyle=orthogonalEdgeStyle;rounded=0;orthogonalLoop=1;jettySize=auto;html=1;" edge="1" parent="1" source="8Ivr_NgXvTZtsLet6FPW-29" target="8Ivr_NgXvTZtsLet6FPW-30">
          <mxGeometry relative="1" as="geometry" />
        </mxCell>
        <mxCell id="8Ivr_NgXvTZtsLet6FPW-29" value="&lt;div&gt;&lt;span style=&quot;font-family: PingFangSC-Regular; font-size: 10pt;&quot;&gt;MAGENTO本地&lt;br/&gt;&lt;/span&gt;&lt;/div&gt;&lt;div&gt;&lt;span style=&quot;font-family: PingFangSC-Regular; font-size: 10pt;&quot;&gt;有该会员信息&lt;/span&gt;&lt;/div&gt;" style="rounded=0;whiteSpace=wrap;html=1;" vertex="1" parent="1">
          <mxGeometry x="660" y="75" width="120" height="60" as="geometry" />
        </mxCell>
        <mxCell id="8Ivr_NgXvTZtsLet6FPW-33" value="" style="edgeStyle=orthogonalEdgeStyle;rounded=0;orthogonalLoop=1;jettySize=auto;html=1;" edge="1" parent="1" source="8Ivr_NgXvTZtsLet6FPW-30" target="8Ivr_NgXvTZtsLet6FPW-32">
          <mxGeometry relative="1" as="geometry" />
        </mxCell>
        <mxCell id="8Ivr_NgXvTZtsLet6FPW-30" value="&lt;div&gt;&lt;span style=&quot;font-family: PingFangSC-Regular; font-size: 10pt;&quot;&gt;⽼会员（在Estore注册&lt;br/&gt;&lt;/span&gt;&lt;/div&gt;&lt;div&gt;&lt;span style=&quot;font-family: PingFangSC-Regular; font-size: 10pt;&quot;&gt;并登陆过会员）&lt;/span&gt;&lt;/div&gt;" style="whiteSpace=wrap;html=1;rounded=0;" vertex="1" parent="1">
          <mxGeometry x="800" y="75" width="120" height="60" as="geometry" />
        </mxCell>
        <mxCell id="8Ivr_NgXvTZtsLet6FPW-35" value="" style="edgeStyle=orthogonalEdgeStyle;rounded=0;orthogonalLoop=1;jettySize=auto;html=1;" edge="1" parent="1" source="8Ivr_NgXvTZtsLet6FPW-32" target="8Ivr_NgXvTZtsLet6FPW-34">
          <mxGeometry relative="1" as="geometry" />
        </mxCell>
        <mxCell id="8Ivr_NgXvTZtsLet6FPW-32" value="&lt;div&gt;&lt;span style=&quot;font-family: PingFangSC-Regular; font-size: 10pt;&quot;&gt;保持为会员状态，&lt;br/&gt;&lt;/span&gt;&lt;/div&gt;&lt;div&gt;&lt;span style=&quot;font-family: PingFangSC-Regular; font-size: 10pt;&quot;&gt;可正常访问&lt;/span&gt;&lt;/div&gt;" style="whiteSpace=wrap;html=1;rounded=0;" vertex="1" parent="1">
          <mxGeometry x="950" y="75" width="120" height="60" as="geometry" />
        </mxCell>
        <mxCell id="8Ivr_NgXvTZtsLet6FPW-34" value="&#xa;&#xa;&lt;div&gt;&lt;span style=&quot;mso-spacerun:&#39;yes&#39;;font-family:PingFangSC-Regular;color:rgb(0,0,0);font-size:10.0000pt;mso-font-kerning:0.0000pt;&quot;&gt;&lt;font face=&quot;PingFangSC-Regular&quot;&gt;触发登录节点&lt;/font&gt;&lt;/span&gt;&lt;/div&gt;&#xa;&#xa;&#xa;" style="whiteSpace=wrap;html=1;rounded=0;" vertex="1" parent="1">
          <mxGeometry x="1110" y="75" width="120" height="60" as="geometry" />
        </mxCell>
        <mxCell id="8Ivr_NgXvTZtsLet6FPW-43" value="" style="edgeStyle=orthogonalEdgeStyle;rounded=0;orthogonalLoop=1;jettySize=auto;html=1;" edge="1" parent="1" source="8Ivr_NgXvTZtsLet6FPW-39" target="8Ivr_NgXvTZtsLet6FPW-42">
          <mxGeometry relative="1" as="geometry" />
        </mxCell>
        <mxCell id="8Ivr_NgXvTZtsLet6FPW-39" value="&lt;div&gt;&lt;span style=&quot;font-family: PingFangSC-Regular; font-size: 10pt;&quot;&gt;正常进⼊&lt;/span&gt;&lt;span style=&quot;font-family: PingFangSC-Regular; font-size: 10pt;&quot;&gt;个⼈中⼼⻚&lt;/span&gt;&lt;span style=&quot;font-family: PingFangSC-Regular; font-size: 10pt;&quot;&gt;、&lt;/span&gt;&lt;span style=&quot;font-family: PingFangSC-Regular; font-size: 10pt;&quot;&gt;加&lt;/span&gt;&lt;/div&gt;&lt;div&gt;&lt;span style=&quot;font-family: PingFangSC-Regular; font-size: 10pt;&quot;&gt;购&lt;/span&gt;&lt;span style=&quot;font-family: PingFangSC-Regular; font-size: 10pt;&quot;&gt;、&lt;/span&gt;&lt;span style=&quot;font-family: PingFangSC-Regular; font-size: 10pt;&quot;&gt;结算&lt;/span&gt;&lt;span style=&quot;font-family: PingFangSC-Regular; font-size: 10pt;&quot;&gt;、&lt;/span&gt;&lt;span style=&quot;font-family: PingFangSC-Regular; font-size: 10pt;&quot;&gt;预定商品&lt;/span&gt;&lt;span style=&quot;font-family: PingFangSC-Regular; font-size: 10pt;&quot;&gt;、&lt;/span&gt;&lt;span style=&quot;font-family: PingFangSC-Regular; font-size: 10pt;&quot;&gt;查&lt;br/&gt;&lt;/span&gt;&lt;/div&gt;&lt;div&gt;&lt;span style=&quot;font-family: PingFangSC-Regular; font-size: 10pt;&quot;&gt;看订单/地址/个⼈信息&lt;/span&gt;&lt;/div&gt;" style="whiteSpace=wrap;html=1;rounded=0;" vertex="1" parent="1">
          <mxGeometry x="1610" y="75" width="160" height="60" as="geometry" />
        </mxCell>
        <mxCell id="8Ivr_NgXvTZtsLet6FPW-41" value="界面展示调用详情接口返回的客户信息" style="text;html=1;align=center;verticalAlign=middle;whiteSpace=wrap;rounded=0;fillColor=#ffe6cc;strokeColor=#d79b00;" vertex="1" parent="1">
          <mxGeometry x="1620" y="150" width="140" height="30" as="geometry" />
        </mxCell>
        <mxCell id="8Ivr_NgXvTZtsLet6FPW-42" value="&lt;div&gt;&lt;span style=&quot;font-family: PingFangSC-Regular; font-size: 10pt;&quot;&gt;修改会员信息：在个⼈&lt;br/&gt;&lt;/span&gt;&lt;/div&gt;&lt;div&gt;&lt;span style=&quot;font-family: PingFangSC-Regular; font-size: 10pt;&quot;&gt;中⼼⻚中修改保存&lt;/span&gt;&lt;/div&gt;" style="whiteSpace=wrap;html=1;rounded=0;" vertex="1" parent="1">
          <mxGeometry x="1840" y="75" width="160" height="60" as="geometry" />
        </mxCell>
        <mxCell id="8Ivr_NgXvTZtsLet6FPW-49" style="edgeStyle=orthogonalEdgeStyle;rounded=0;orthogonalLoop=1;jettySize=auto;html=1;exitX=1;exitY=0.5;exitDx=0;exitDy=0;entryX=0;entryY=0.5;entryDx=0;entryDy=0;" edge="1" parent="1" source="8Ivr_NgXvTZtsLet6FPW-44" target="8Ivr_NgXvTZtsLet6FPW-47">
          <mxGeometry relative="1" as="geometry" />
        </mxCell>
        <mxCell id="8Ivr_NgXvTZtsLet6FPW-44" value="调用UCR“OPEN-API-10_注册综合场景接口（仅更新，根据手机号查询更新)”&lt;div&gt;&lt;br&gt;&lt;/div&gt;&lt;div&gt;&lt;b&gt;&lt;font color=&quot;#cc0000&quot;&gt;同时保存至本地数据库&lt;/font&gt;&lt;/b&gt;&lt;br&gt;&lt;/div&gt;" style="rounded=0;whiteSpace=wrap;html=1;fillColor=#FFBA85;strokeColor=#f1af09;" vertex="1" parent="1">
          <mxGeometry x="2100" y="75" width="240" height="60" as="geometry" />
        </mxCell>
        <mxCell id="8Ivr_NgXvTZtsLet6FPW-45" style="edgeStyle=orthogonalEdgeStyle;rounded=0;orthogonalLoop=1;jettySize=auto;html=1;exitX=1;exitY=0.5;exitDx=0;exitDy=0;entryX=0.05;entryY=0.5;entryDx=0;entryDy=0;entryPerimeter=0;" edge="1" parent="1" source="8Ivr_NgXvTZtsLet6FPW-42" target="8Ivr_NgXvTZtsLet6FPW-44">
          <mxGeometry relative="1" as="geometry" />
        </mxCell>
        <mxCell id="8Ivr_NgXvTZtsLet6FPW-47" value="&lt;div&gt;&lt;span style=&quot;font-family: PingFangSC-Regular; font-size: 10pt;&quot;&gt;继续浏览⼩程序&lt;/span&gt;&lt;/div&gt;" style="whiteSpace=wrap;html=1;rounded=0;" vertex="1" parent="1">
          <mxGeometry x="2440" y="75" width="160" height="60" as="geometry" />
        </mxCell>
        <mxCell id="8Ivr_NgXvTZtsLet6FPW-56" value="" style="edgeStyle=orthogonalEdgeStyle;rounded=0;orthogonalLoop=1;jettySize=auto;html=1;entryX=0.5;entryY=0;entryDx=0;entryDy=0;" edge="1" parent="1" source="8Ivr_NgXvTZtsLet6FPW-53" target="8Ivr_NgXvTZtsLet6FPW-75">
          <mxGeometry relative="1" as="geometry">
            <mxPoint x="465" y="720" as="targetPoint" />
          </mxGeometry>
        </mxCell>
        <mxCell id="8Ivr_NgXvTZtsLet6FPW-60" value="查询不到" style="edgeLabel;html=1;align=center;verticalAlign=middle;resizable=0;points=[];" vertex="1" connectable="0" parent="8Ivr_NgXvTZtsLet6FPW-56">
          <mxGeometry x="-0.1852" y="-1" relative="1" as="geometry">
            <mxPoint as="offset" />
          </mxGeometry>
        </mxCell>
        <mxCell id="8Ivr_NgXvTZtsLet6FPW-61" style="edgeStyle=orthogonalEdgeStyle;rounded=0;orthogonalLoop=1;jettySize=auto;html=1;exitX=1;exitY=0.5;exitDx=0;exitDy=0;entryX=0;entryY=0.5;entryDx=0;entryDy=0;" edge="1" parent="1" source="8Ivr_NgXvTZtsLet6FPW-53">
          <mxGeometry relative="1" as="geometry">
            <mxPoint x="620" y="570" as="targetPoint" />
          </mxGeometry>
        </mxCell>
        <mxCell id="8Ivr_NgXvTZtsLet6FPW-62" value="能查询到" style="edgeLabel;html=1;align=center;verticalAlign=middle;resizable=0;points=[];" vertex="1" connectable="0" parent="8Ivr_NgXvTZtsLet6FPW-61">
          <mxGeometry x="-0.1681" y="-2" relative="1" as="geometry">
            <mxPoint as="offset" />
          </mxGeometry>
        </mxCell>
        <mxCell id="8Ivr_NgXvTZtsLet6FPW-53" value="是否正确查询到客户信息" style="rhombus;whiteSpace=wrap;html=1;fillColor=#ffe6cc;strokeColor=#d79b00;rounded=0;" vertex="1" parent="1">
          <mxGeometry x="425" y="530" width="80" height="80" as="geometry" />
        </mxCell>
        <mxCell id="8Ivr_NgXvTZtsLet6FPW-68" style="edgeStyle=orthogonalEdgeStyle;rounded=0;orthogonalLoop=1;jettySize=auto;html=1;exitX=1;exitY=0.5;exitDx=0;exitDy=0;entryX=0;entryY=0.5;entryDx=0;entryDy=0;" edge="1" parent="1" source="8Ivr_NgXvTZtsLet6FPW-63" target="8Ivr_NgXvTZtsLet6FPW-65">
          <mxGeometry relative="1" as="geometry" />
        </mxCell>
        <mxCell id="8Ivr_NgXvTZtsLet6FPW-63" value="根据“识别客户”接口查询返回的手机号&amp;nbsp;&lt;br&gt;调用UCR&quot;OPEN-API-05查看客户详细信息接口（根据手机号查询)&quot;，接口返回客户详细信息" style="rounded=0;whiteSpace=wrap;html=1;fillColor=#ffe6cc;strokeColor=#d79b00;" vertex="1" parent="1">
          <mxGeometry x="620" y="540" width="260" height="60" as="geometry" />
        </mxCell>
        <mxCell id="8Ivr_NgXvTZtsLet6FPW-69" value="" style="edgeStyle=orthogonalEdgeStyle;rounded=0;orthogonalLoop=1;jettySize=auto;html=1;" edge="1" parent="1" source="8Ivr_NgXvTZtsLet6FPW-65" target="8Ivr_NgXvTZtsLet6FPW-66">
          <mxGeometry relative="1" as="geometry" />
        </mxCell>
        <mxCell id="8Ivr_NgXvTZtsLet6FPW-65" value="&lt;font face=&quot;PingFangSC-Regular&quot;&gt;&lt;span style=&quot;font-size: 13.3333px;&quot;&gt;将查询客户详情接口客户信息填充在“创建账户”界面&lt;/span&gt;&lt;/font&gt;" style="whiteSpace=wrap;html=1;rounded=0;fontStyle=0" vertex="1" parent="1">
          <mxGeometry x="970" y="540" width="120" height="60" as="geometry" />
        </mxCell>
        <mxCell id="8Ivr_NgXvTZtsLet6FPW-70" style="edgeStyle=orthogonalEdgeStyle;rounded=0;orthogonalLoop=1;jettySize=auto;html=1;exitX=1;exitY=0.5;exitDx=0;exitDy=0;entryX=0;entryY=0.5;entryDx=0;entryDy=0;" edge="1" parent="1" source="8Ivr_NgXvTZtsLet6FPW-66" target="8Ivr_NgXvTZtsLet6FPW-67">
          <mxGeometry relative="1" as="geometry" />
        </mxCell>
        <mxCell id="8Ivr_NgXvTZtsLet6FPW-66" value="客户查看个人信息或重新更新个人信息后，进行提交" style="whiteSpace=wrap;html=1;rounded=0;" vertex="1" parent="1">
          <mxGeometry x="1150" y="540" width="120" height="60" as="geometry" />
        </mxCell>
        <mxCell id="8Ivr_NgXvTZtsLet6FPW-73" style="edgeStyle=orthogonalEdgeStyle;rounded=0;orthogonalLoop=1;jettySize=auto;html=1;exitX=1;exitY=0.5;exitDx=0;exitDy=0;entryX=0;entryY=0.5;entryDx=0;entryDy=0;" edge="1" parent="1" source="8Ivr_NgXvTZtsLet6FPW-67" target="8Ivr_NgXvTZtsLet6FPW-72">
          <mxGeometry relative="1" as="geometry" />
        </mxCell>
        <mxCell id="8Ivr_NgXvTZtsLet6FPW-67" value="调用UCR“OPEN-API-10_注册综合场景接口（仅更新，根据手机号查询更新)”&amp;nbsp;&amp;nbsp;&lt;div&gt;&lt;br&gt;&lt;b&gt;&lt;font color=&quot;#cc0000&quot;&gt;同时保存至本地数据库&lt;/font&gt;&lt;/b&gt;&lt;/div&gt;" style="rounded=0;whiteSpace=wrap;html=1;fillColor=#FFBA85;strokeColor=#d79b00;" vertex="1" parent="1">
          <mxGeometry x="1370" y="540" width="260" height="60" as="geometry" />
        </mxCell>
        <mxCell id="8Ivr_NgXvTZtsLet6FPW-72" value="&lt;div&gt;&lt;span style=&quot;font-family: PingFangSC-Regular; font-size: 10pt;&quot;&gt;以会员身份，正常浏览&lt;br/&gt;&lt;/span&gt;&lt;/div&gt;&lt;div&gt;&lt;span style=&quot;font-family: PingFangSC-Regular; font-size: 10pt;&quot;&gt;⼩程序&lt;/span&gt;&lt;/div&gt;" style="whiteSpace=wrap;html=1;rounded=0;" vertex="1" parent="1">
          <mxGeometry x="1740" y="540" width="140" height="60" as="geometry" />
        </mxCell>
        <mxCell id="8Ivr_NgXvTZtsLet6FPW-78" value="" style="edgeStyle=orthogonalEdgeStyle;rounded=0;orthogonalLoop=1;jettySize=auto;html=1;" edge="1" parent="1" source="8Ivr_NgXvTZtsLet6FPW-75" target="8Ivr_NgXvTZtsLet6FPW-77">
          <mxGeometry relative="1" as="geometry" />
        </mxCell>
        <mxCell id="8Ivr_NgXvTZtsLet6FPW-75" value="&lt;font face=&quot;PingFangSC-Regular&quot;&gt;&lt;span style=&quot;font-size: 13.3333px;&quot;&gt;跳转到注册页面&lt;/span&gt;&lt;/font&gt;" style="whiteSpace=wrap;html=1;rounded=0;" vertex="1" parent="1">
          <mxGeometry x="385" y="760" width="160" height="60" as="geometry" />
        </mxCell>
        <mxCell id="8Ivr_NgXvTZtsLet6FPW-84" style="edgeStyle=orthogonalEdgeStyle;rounded=0;orthogonalLoop=1;jettySize=auto;html=1;exitX=1;exitY=0.5;exitDx=0;exitDy=0;entryX=0;entryY=0.5;entryDx=0;entryDy=0;" edge="1" parent="1" source="8Ivr_NgXvTZtsLet6FPW-77" target="8Ivr_NgXvTZtsLet6FPW-83">
          <mxGeometry relative="1" as="geometry" />
        </mxCell>
        <mxCell id="8Ivr_NgXvTZtsLet6FPW-77" value="客户填写个人信息以及手机号，进行提交" style="whiteSpace=wrap;html=1;rounded=0;" vertex="1" parent="1">
          <mxGeometry x="580" y="760" width="120" height="60" as="geometry" />
        </mxCell>
        <mxCell id="8Ivr_NgXvTZtsLet6FPW-87" style="edgeStyle=orthogonalEdgeStyle;rounded=0;orthogonalLoop=1;jettySize=auto;html=1;exitX=1;exitY=0.5;exitDx=0;exitDy=0;entryX=0;entryY=0.5;entryDx=0;entryDy=0;" edge="1" parent="1" source="8Ivr_NgXvTZtsLet6FPW-83" target="8Ivr_NgXvTZtsLet6FPW-86">
          <mxGeometry relative="1" as="geometry" />
        </mxCell>
        <mxCell id="8Ivr_NgXvTZtsLet6FPW-83" value="根据客户填写的手机号&amp;nbsp;&lt;br&gt;调用UCR&quot;OPEN-API-05查看客户详细信息接口（根据手机号查询)&quot;" style="rounded=0;whiteSpace=wrap;html=1;fillColor=#ffe6cc;strokeColor=#d79b00;" vertex="1" parent="1">
          <mxGeometry x="810" y="760" width="260" height="60" as="geometry" />
        </mxCell>
        <mxCell id="8Ivr_NgXvTZtsLet6FPW-89" style="edgeStyle=orthogonalEdgeStyle;rounded=0;orthogonalLoop=1;jettySize=auto;html=1;exitX=0.5;exitY=1;exitDx=0;exitDy=0;entryX=0.5;entryY=0;entryDx=0;entryDy=0;" edge="1" parent="1" source="8Ivr_NgXvTZtsLet6FPW-86" target="8Ivr_NgXvTZtsLet6FPW-88">
          <mxGeometry relative="1" as="geometry" />
        </mxCell>
        <mxCell id="8Ivr_NgXvTZtsLet6FPW-90" value="查询不到" style="edgeLabel;html=1;align=center;verticalAlign=middle;resizable=0;points=[];" vertex="1" connectable="0" parent="8Ivr_NgXvTZtsLet6FPW-89">
          <mxGeometry x="0.075" y="1" relative="1" as="geometry">
            <mxPoint as="offset" />
          </mxGeometry>
        </mxCell>
        <mxCell id="8Ivr_NgXvTZtsLet6FPW-91" style="edgeStyle=orthogonalEdgeStyle;rounded=0;orthogonalLoop=1;jettySize=auto;html=1;exitX=1;exitY=0.5;exitDx=0;exitDy=0;" edge="1" parent="1" source="8Ivr_NgXvTZtsLet6FPW-86">
          <mxGeometry relative="1" as="geometry">
            <mxPoint x="1310" y="790" as="targetPoint" />
          </mxGeometry>
        </mxCell>
        <mxCell id="8Ivr_NgXvTZtsLet6FPW-201" value="查询得到" style="edgeLabel;html=1;align=center;verticalAlign=middle;resizable=0;points=[];" vertex="1" connectable="0" parent="8Ivr_NgXvTZtsLet6FPW-91">
          <mxGeometry x="-0.21" y="2" relative="1" as="geometry">
            <mxPoint x="-1" as="offset" />
          </mxGeometry>
        </mxCell>
        <mxCell id="8Ivr_NgXvTZtsLet6FPW-86" value="是否正确查询到客户信息" style="rhombus;whiteSpace=wrap;html=1;fillColor=#ffe6cc;strokeColor=#d79b00;rounded=0;" vertex="1" parent="1">
          <mxGeometry x="1140" y="750" width="80" height="80" as="geometry" />
        </mxCell>
        <mxCell id="8Ivr_NgXvTZtsLet6FPW-115" style="edgeStyle=orthogonalEdgeStyle;rounded=0;orthogonalLoop=1;jettySize=auto;html=1;exitX=1;exitY=0.5;exitDx=0;exitDy=0;entryX=0.5;entryY=1;entryDx=0;entryDy=0;" edge="1" parent="1" source="8Ivr_NgXvTZtsLet6FPW-88" target="8Ivr_NgXvTZtsLet6FPW-108">
          <mxGeometry relative="1" as="geometry" />
        </mxCell>
        <mxCell id="8Ivr_NgXvTZtsLet6FPW-88" value="调用UCR“OPEN-API-10_注册综合场景接口”&lt;div&gt;&lt;br&gt;&lt;/div&gt;&lt;div&gt;&lt;b&gt;&lt;font color=&quot;#cc0000&quot;&gt;同时保存至本地数据库&lt;/font&gt;&lt;/b&gt;&lt;br&gt;&lt;/div&gt;" style="rounded=0;whiteSpace=wrap;html=1;fillColor=#FFBA85;strokeColor=#FFBA85;" vertex="1" parent="1">
          <mxGeometry x="1050" y="910" width="260" height="60" as="geometry" />
        </mxCell>
        <mxCell id="8Ivr_NgXvTZtsLet6FPW-92" value="" style="rounded=0;whiteSpace=wrap;html=1;dashed=1;" vertex="1" parent="1">
          <mxGeometry x="1310" y="720" width="430" height="130" as="geometry" />
        </mxCell>
        <mxCell id="8Ivr_NgXvTZtsLet6FPW-99" style="edgeStyle=orthogonalEdgeStyle;rounded=0;orthogonalLoop=1;jettySize=auto;html=1;exitX=1;exitY=0.5;exitDx=0;exitDy=0;" edge="1" parent="1" source="8Ivr_NgXvTZtsLet6FPW-94" target="8Ivr_NgXvTZtsLet6FPW-95">
          <mxGeometry relative="1" as="geometry" />
        </mxCell>
        <mxCell id="8Ivr_NgXvTZtsLet6FPW-100" style="edgeStyle=orthogonalEdgeStyle;rounded=0;orthogonalLoop=1;jettySize=auto;html=1;exitX=1;exitY=0.5;exitDx=0;exitDy=0;entryX=0;entryY=0.5;entryDx=0;entryDy=0;" edge="1" parent="1" source="8Ivr_NgXvTZtsLet6FPW-94" target="8Ivr_NgXvTZtsLet6FPW-96">
          <mxGeometry relative="1" as="geometry" />
        </mxCell>
        <mxCell id="8Ivr_NgXvTZtsLet6FPW-94" value="&lt;font face=&quot;PingFangSC-Regular&quot;&gt;&lt;span style=&quot;font-size: 13.3333px;&quot;&gt;弹框提示客户已有会员信息，选择“保留”还是更新&lt;/span&gt;&lt;/font&gt;" style="whiteSpace=wrap;html=1;rounded=0;" vertex="1" parent="1">
          <mxGeometry x="1350" y="755" width="140" height="60" as="geometry" />
        </mxCell>
        <mxCell id="8Ivr_NgXvTZtsLet6FPW-106" style="edgeStyle=orthogonalEdgeStyle;rounded=0;orthogonalLoop=1;jettySize=auto;html=1;exitX=1;exitY=0.5;exitDx=0;exitDy=0;entryX=0;entryY=0.5;entryDx=0;entryDy=0;" edge="1" parent="1" source="8Ivr_NgXvTZtsLet6FPW-95" target="8Ivr_NgXvTZtsLet6FPW-103">
          <mxGeometry relative="1" as="geometry" />
        </mxCell>
        <mxCell id="8Ivr_NgXvTZtsLet6FPW-95" value="&lt;font face=&quot;PingFangSC-Regular&quot;&gt;&lt;span style=&quot;font-size: 13.3333px;&quot;&gt;保留&lt;/span&gt;&lt;/font&gt;" style="whiteSpace=wrap;html=1;rounded=0;" vertex="1" parent="1">
          <mxGeometry x="1580" y="730" width="50" height="40" as="geometry" />
        </mxCell>
        <mxCell id="8Ivr_NgXvTZtsLet6FPW-105" style="edgeStyle=orthogonalEdgeStyle;rounded=0;orthogonalLoop=1;jettySize=auto;html=1;exitX=1;exitY=0.5;exitDx=0;exitDy=0;entryX=0;entryY=0.5;entryDx=0;entryDy=0;" edge="1" parent="1" source="8Ivr_NgXvTZtsLet6FPW-96" target="8Ivr_NgXvTZtsLet6FPW-104">
          <mxGeometry relative="1" as="geometry" />
        </mxCell>
        <mxCell id="8Ivr_NgXvTZtsLet6FPW-96" value="&lt;font face=&quot;PingFangSC-Regular&quot;&gt;&lt;span style=&quot;font-size: 13.3333px;&quot;&gt;更新&lt;/span&gt;&lt;/font&gt;" style="whiteSpace=wrap;html=1;rounded=0;" vertex="1" parent="1">
          <mxGeometry x="1580" y="800" width="50" height="40" as="geometry" />
        </mxCell>
        <mxCell id="8Ivr_NgXvTZtsLet6FPW-219" style="edgeStyle=orthogonalEdgeStyle;rounded=0;orthogonalLoop=1;jettySize=auto;html=1;exitX=1;exitY=0.5;exitDx=0;exitDy=0;entryX=0;entryY=0.5;entryDx=0;entryDy=0;" edge="1" parent="1" source="8Ivr_NgXvTZtsLet6FPW-103" target="8Ivr_NgXvTZtsLet6FPW-108">
          <mxGeometry relative="1" as="geometry" />
        </mxCell>
        <mxCell id="8Ivr_NgXvTZtsLet6FPW-103" value="调用UCR“OPEN-API-10_注册综合场景接口（仅绑定，根据手机号查询)”&lt;div&gt;&lt;br&gt;&lt;/div&gt;&lt;div&gt;&lt;b&gt;&lt;font color=&quot;#cc0000&quot;&gt;同时保存至本地数据库&lt;/font&gt;&lt;/b&gt;&lt;br&gt;&lt;/div&gt;" style="rounded=0;whiteSpace=wrap;html=1;fillColor=#FFBA85;strokeColor=#d79b00;" vertex="1" parent="1">
          <mxGeometry x="1780" y="720" width="260" height="60" as="geometry" />
        </mxCell>
        <mxCell id="8Ivr_NgXvTZtsLet6FPW-221" style="edgeStyle=orthogonalEdgeStyle;rounded=0;orthogonalLoop=1;jettySize=auto;html=1;exitX=1;exitY=0.5;exitDx=0;exitDy=0;entryX=0;entryY=0.5;entryDx=0;entryDy=0;" edge="1" parent="1" source="8Ivr_NgXvTZtsLet6FPW-104" target="8Ivr_NgXvTZtsLet6FPW-108">
          <mxGeometry relative="1" as="geometry" />
        </mxCell>
        <mxCell id="8Ivr_NgXvTZtsLet6FPW-104" value="调用UCR“OPEN-API-10_注册综合场景接口（更新以及绑定，根据手机号查询)”&lt;div&gt;&lt;br&gt;&lt;/div&gt;&lt;div&gt;&lt;b&gt;&lt;font color=&quot;#cc0000&quot;&gt;同时保存至本地数据库&lt;/font&gt;&lt;/b&gt;&lt;br&gt;&lt;/div&gt;" style="rounded=0;whiteSpace=wrap;html=1;fillColor=#FFBA85;strokeColor=#d79b00;" vertex="1" parent="1">
          <mxGeometry x="1780" y="790" width="260" height="60" as="geometry" />
        </mxCell>
        <mxCell id="8Ivr_NgXvTZtsLet6FPW-108" value="&lt;div&gt;&lt;span style=&quot;font-family: PingFangSC-Regular; font-size: 10pt;&quot;&gt;继续浏览⼩程序&lt;/span&gt;&lt;/div&gt;" style="whiteSpace=wrap;html=1;rounded=0;" vertex="1" parent="1">
          <mxGeometry x="2200" y="755" width="160" height="60" as="geometry" />
        </mxCell>
        <mxCell id="8Ivr_NgXvTZtsLet6FPW-117" value="存在一个问题：&lt;div&gt;在estore给的流程图中，有一个判断是否到注册页还是登录页，目前从ucr接口调用逻辑来看，没法去判断，还是说有加一步操作去判断&lt;/div&gt;" style="rounded=1;whiteSpace=wrap;html=1;fillColor=#f8cecc;strokeColor=#b85450;align=left;" vertex="1" parent="1">
          <mxGeometry x="50" y="40" width="400" height="60" as="geometry" />
        </mxCell>
        <mxCell id="8Ivr_NgXvTZtsLet6FPW-124" style="edgeStyle=orthogonalEdgeStyle;rounded=0;orthogonalLoop=1;jettySize=auto;html=1;exitX=1;exitY=0.5;exitDx=0;exitDy=0;entryX=0;entryY=0.5;entryDx=0;entryDy=0;" edge="1" parent="1" source="8Ivr_NgXvTZtsLet6FPW-118" target="8Ivr_NgXvTZtsLet6FPW-121">
          <mxGeometry relative="1" as="geometry" />
        </mxCell>
        <mxCell id="8Ivr_NgXvTZtsLet6FPW-118" value="Zenith ZWE" style="rounded=1;whiteSpace=wrap;html=1;" vertex="1" parent="1">
          <mxGeometry x="10" y="1430" width="120" height="60" as="geometry" />
        </mxCell>
        <mxCell id="8Ivr_NgXvTZtsLet6FPW-163" style="edgeStyle=orthogonalEdgeStyle;rounded=0;orthogonalLoop=1;jettySize=auto;html=1;exitX=1;exitY=0.5;exitDx=0;exitDy=0;exitPerimeter=0;entryX=0;entryY=0.5;entryDx=0;entryDy=0;" edge="1" parent="1" source="8Ivr_NgXvTZtsLet6FPW-120" target="8Ivr_NgXvTZtsLet6FPW-125">
          <mxGeometry relative="1" as="geometry">
            <Array as="points">
              <mxPoint x="850" y="1460" />
              <mxPoint x="850" y="1380" />
            </Array>
          </mxGeometry>
        </mxCell>
        <mxCell id="8Ivr_NgXvTZtsLet6FPW-165" value="存在" style="edgeLabel;html=1;align=center;verticalAlign=middle;resizable=0;points=[];" vertex="1" connectable="0" parent="8Ivr_NgXvTZtsLet6FPW-163">
          <mxGeometry x="0.0486" y="1" relative="1" as="geometry">
            <mxPoint as="offset" />
          </mxGeometry>
        </mxCell>
        <mxCell id="8Ivr_NgXvTZtsLet6FPW-164" style="edgeStyle=orthogonalEdgeStyle;rounded=0;orthogonalLoop=1;jettySize=auto;html=1;exitX=1;exitY=0.5;exitDx=0;exitDy=0;exitPerimeter=0;entryX=0;entryY=0.5;entryDx=0;entryDy=0;" edge="1" parent="1" source="8Ivr_NgXvTZtsLet6FPW-120" target="8Ivr_NgXvTZtsLet6FPW-126">
          <mxGeometry relative="1" as="geometry" />
        </mxCell>
        <mxCell id="8Ivr_NgXvTZtsLet6FPW-166" value="不存在" style="edgeLabel;html=1;align=center;verticalAlign=middle;resizable=0;points=[];" vertex="1" connectable="0" parent="8Ivr_NgXvTZtsLet6FPW-164">
          <mxGeometry x="-0.1302" y="-1" relative="1" as="geometry">
            <mxPoint as="offset" />
          </mxGeometry>
        </mxCell>
        <mxCell id="8Ivr_NgXvTZtsLet6FPW-120" value="查看本地数据库中是否存在" style="shape=cylinder3;whiteSpace=wrap;html=1;boundedLbl=1;backgroundOutline=1;size=15;" vertex="1" parent="1">
          <mxGeometry x="669" y="1414" width="60" height="92" as="geometry" />
        </mxCell>
        <mxCell id="8Ivr_NgXvTZtsLet6FPW-130" style="edgeStyle=orthogonalEdgeStyle;rounded=0;orthogonalLoop=1;jettySize=auto;html=1;exitX=1;exitY=0.5;exitDx=0;exitDy=0;entryX=0;entryY=0.5;entryDx=0;entryDy=0;" edge="1" parent="1" source="8Ivr_NgXvTZtsLet6FPW-121" target="8Ivr_NgXvTZtsLet6FPW-122">
          <mxGeometry relative="1" as="geometry" />
        </mxCell>
        <mxCell id="8Ivr_NgXvTZtsLet6FPW-121" value="&lt;font face=&quot;PingFangSC-Regular&quot;&gt;&lt;span style=&quot;font-size: 13.3333px;&quot;&gt;用户进入小程序&lt;/span&gt;&lt;/font&gt;" style="rounded=0;whiteSpace=wrap;html=1;" vertex="1" parent="1">
          <mxGeometry x="240" y="1430" width="120" height="60" as="geometry" />
        </mxCell>
        <mxCell id="8Ivr_NgXvTZtsLet6FPW-162" style="edgeStyle=orthogonalEdgeStyle;rounded=0;orthogonalLoop=1;jettySize=auto;html=1;exitX=1;exitY=0.5;exitDx=0;exitDy=0;" edge="1" parent="1" source="8Ivr_NgXvTZtsLet6FPW-122" target="8Ivr_NgXvTZtsLet6FPW-120">
          <mxGeometry relative="1" as="geometry" />
        </mxCell>
        <mxCell id="8Ivr_NgXvTZtsLet6FPW-122" value="&lt;font face=&quot;PingFangSC-Regular&quot;&gt;&lt;span style=&quot;font-size: 13.3333px;&quot;&gt;获取opendi查询用户表&lt;/span&gt;&lt;/font&gt;" style="rounded=0;whiteSpace=wrap;html=1;" vertex="1" parent="1">
          <mxGeometry x="440" y="1430" width="120" height="60" as="geometry" />
        </mxCell>
        <mxCell id="8Ivr_NgXvTZtsLet6FPW-136" style="edgeStyle=orthogonalEdgeStyle;rounded=0;orthogonalLoop=1;jettySize=auto;html=1;exitX=1;exitY=0.5;exitDx=0;exitDy=0;entryX=0.5;entryY=0;entryDx=0;entryDy=0;" edge="1" parent="1" source="8Ivr_NgXvTZtsLet6FPW-125" target="8Ivr_NgXvTZtsLet6FPW-223">
          <mxGeometry relative="1" as="geometry">
            <mxPoint x="1300" y="1380" as="targetPoint" />
          </mxGeometry>
        </mxCell>
        <mxCell id="8Ivr_NgXvTZtsLet6FPW-138" value="存在" style="edgeLabel;html=1;align=center;verticalAlign=middle;resizable=0;points=[];" vertex="1" connectable="0" parent="8Ivr_NgXvTZtsLet6FPW-136">
          <mxGeometry x="0.2195" y="3" relative="1" as="geometry">
            <mxPoint as="offset" />
          </mxGeometry>
        </mxCell>
        <mxCell id="8Ivr_NgXvTZtsLet6FPW-137" style="edgeStyle=orthogonalEdgeStyle;rounded=0;orthogonalLoop=1;jettySize=auto;html=1;exitX=0.5;exitY=1;exitDx=0;exitDy=0;entryX=0.5;entryY=0;entryDx=0;entryDy=0;" edge="1" parent="1" source="8Ivr_NgXvTZtsLet6FPW-125" target="8Ivr_NgXvTZtsLet6FPW-126">
          <mxGeometry relative="1" as="geometry" />
        </mxCell>
        <mxCell id="8Ivr_NgXvTZtsLet6FPW-167" value="不存在" style="edgeLabel;html=1;align=center;verticalAlign=middle;resizable=0;points=[];" vertex="1" connectable="0" parent="8Ivr_NgXvTZtsLet6FPW-137">
          <mxGeometry x="-0.2115" y="2" relative="1" as="geometry">
            <mxPoint as="offset" />
          </mxGeometry>
        </mxCell>
        <mxCell id="8Ivr_NgXvTZtsLet6FPW-125" value="判断客户在本地数据库中是否存在&lt;div&gt;brandmemberId&lt;/div&gt;" style="rhombus;whiteSpace=wrap;html=1;" vertex="1" parent="1">
          <mxGeometry x="993" y="1320" width="170" height="120" as="geometry" />
        </mxCell>
        <mxCell id="8Ivr_NgXvTZtsLet6FPW-155" style="edgeStyle=orthogonalEdgeStyle;rounded=0;orthogonalLoop=1;jettySize=auto;html=1;exitX=0.5;exitY=1;exitDx=0;exitDy=0;entryX=0.5;entryY=0;entryDx=0;entryDy=0;" edge="1" parent="1" source="8Ivr_NgXvTZtsLet6FPW-126" target="8Ivr_NgXvTZtsLet6FPW-152">
          <mxGeometry relative="1" as="geometry" />
        </mxCell>
        <mxCell id="8Ivr_NgXvTZtsLet6FPW-126" value="调用UCR&quot;OPEN-API-03识别客户接口（根据channel+subchannel+channelId）查询&quot;，接口会返回手机号和brandmemberId" style="rounded=0;whiteSpace=wrap;html=1;fillColor=#ffe6cc;strokeColor=#d79b00;" vertex="1" parent="1">
          <mxGeometry x="973" y="1565" width="210" height="70" as="geometry" />
        </mxCell>
        <mxCell id="8Ivr_NgXvTZtsLet6FPW-168" style="edgeStyle=orthogonalEdgeStyle;rounded=0;orthogonalLoop=1;jettySize=auto;html=1;exitX=1;exitY=0.5;exitDx=0;exitDy=0;entryX=0;entryY=0.5;entryDx=0;entryDy=0;" edge="1" parent="1" source="8Ivr_NgXvTZtsLet6FPW-140" target="8Ivr_NgXvTZtsLet6FPW-142">
          <mxGeometry relative="1" as="geometry" />
        </mxCell>
        <mxCell id="8Ivr_NgXvTZtsLet6FPW-140" value="调用UCR“OPEN-API-05查看客户详细信息接口(根据手机号查询)”，接口返回客户详细信息" style="rounded=0;whiteSpace=wrap;html=1;fillColor=#ffe6cc;strokeColor=#d79b00;" vertex="1" parent="1">
          <mxGeometry x="1320" y="1180" width="160" height="60" as="geometry" />
        </mxCell>
        <mxCell id="8Ivr_NgXvTZtsLet6FPW-146" style="edgeStyle=orthogonalEdgeStyle;rounded=0;orthogonalLoop=1;jettySize=auto;html=1;exitX=1;exitY=0.5;exitDx=0;exitDy=0;entryX=0;entryY=0.5;entryDx=0;entryDy=0;" edge="1" parent="1" source="8Ivr_NgXvTZtsLet6FPW-142" target="8Ivr_NgXvTZtsLet6FPW-144">
          <mxGeometry relative="1" as="geometry" />
        </mxCell>
        <mxCell id="8Ivr_NgXvTZtsLet6FPW-142" value="&lt;div&gt;&lt;span style=&quot;font-family: PingFangSC-Regular; font-size: 10pt;&quot;&gt;进⼊&lt;/span&gt;&lt;span style=&quot;font-family: PingFangSC-Regular; font-size: 10pt;&quot;&gt;个⼈中⼼⻚&lt;/span&gt;&lt;/div&gt;" style="whiteSpace=wrap;html=1;rounded=0;" vertex="1" parent="1">
          <mxGeometry x="1570" y="1350" width="160" height="60" as="geometry" />
        </mxCell>
        <mxCell id="8Ivr_NgXvTZtsLet6FPW-143" value="界面展示调用详情接口返回的客户信息" style="text;html=1;align=center;verticalAlign=middle;whiteSpace=wrap;rounded=0;fillColor=#ffe6cc;strokeColor=#d79b00;" vertex="1" parent="1">
          <mxGeometry x="1580" y="1421" width="140" height="30" as="geometry" />
        </mxCell>
        <mxCell id="8Ivr_NgXvTZtsLet6FPW-148" style="edgeStyle=orthogonalEdgeStyle;rounded=0;orthogonalLoop=1;jettySize=auto;html=1;exitX=1;exitY=0.5;exitDx=0;exitDy=0;entryX=0;entryY=0.5;entryDx=0;entryDy=0;" edge="1" parent="1" source="8Ivr_NgXvTZtsLet6FPW-144" target="8Ivr_NgXvTZtsLet6FPW-147">
          <mxGeometry relative="1" as="geometry" />
        </mxCell>
        <mxCell id="8Ivr_NgXvTZtsLet6FPW-144" value="&lt;div&gt;&lt;span style=&quot;font-family: PingFangSC-Regular; font-size: 10pt;&quot;&gt;修改会员信息：在个⼈&lt;br/&gt;&lt;/span&gt;&lt;/div&gt;&lt;div&gt;&lt;span style=&quot;font-family: PingFangSC-Regular; font-size: 10pt;&quot;&gt;中⼼⻚中修改保存&lt;/span&gt;&lt;/div&gt;" style="whiteSpace=wrap;html=1;rounded=0;" vertex="1" parent="1">
          <mxGeometry x="1810" y="1350" width="160" height="60" as="geometry" />
        </mxCell>
        <mxCell id="8Ivr_NgXvTZtsLet6FPW-151" style="edgeStyle=orthogonalEdgeStyle;rounded=0;orthogonalLoop=1;jettySize=auto;html=1;exitX=1;exitY=0.5;exitDx=0;exitDy=0;" edge="1" parent="1" source="8Ivr_NgXvTZtsLet6FPW-147" target="8Ivr_NgXvTZtsLet6FPW-150">
          <mxGeometry relative="1" as="geometry" />
        </mxCell>
        <mxCell id="8Ivr_NgXvTZtsLet6FPW-147" value="调用UCR“OPEN-API-10_注册综合场景接口（仅更新，根据手机号查询更新)”&lt;div&gt;&lt;br&gt;&lt;/div&gt;&lt;div&gt;&lt;b&gt;&lt;font color=&quot;#cc0000&quot;&gt;同时保存至本地数据库&lt;/font&gt;&lt;/b&gt;&lt;br&gt;&lt;/div&gt;" style="rounded=0;whiteSpace=wrap;html=1;fillColor=#FFBA85;strokeColor=#f1af09;" vertex="1" parent="1">
          <mxGeometry x="2130" y="1350" width="240" height="60" as="geometry" />
        </mxCell>
        <mxCell id="8Ivr_NgXvTZtsLet6FPW-150" value="&lt;div&gt;&lt;span style=&quot;font-family: PingFangSC-Regular; font-size: 10pt;&quot;&gt;继续浏览⼩程序&lt;/span&gt;&lt;/div&gt;" style="whiteSpace=wrap;html=1;rounded=0;" vertex="1" parent="1">
          <mxGeometry x="2540" y="1350" width="160" height="60" as="geometry" />
        </mxCell>
        <mxCell id="8Ivr_NgXvTZtsLet6FPW-156" style="edgeStyle=orthogonalEdgeStyle;rounded=0;orthogonalLoop=1;jettySize=auto;html=1;exitX=1;exitY=0.5;exitDx=0;exitDy=0;entryX=0;entryY=0.5;entryDx=0;entryDy=0;" edge="1" parent="1" source="8Ivr_NgXvTZtsLet6FPW-152" target="8Ivr_NgXvTZtsLet6FPW-223">
          <mxGeometry relative="1" as="geometry">
            <mxPoint x="1350" y="1620" as="targetPoint" />
          </mxGeometry>
        </mxCell>
        <mxCell id="8Ivr_NgXvTZtsLet6FPW-169" value="查询得到" style="edgeLabel;html=1;align=center;verticalAlign=middle;resizable=0;points=[];" vertex="1" connectable="0" parent="8Ivr_NgXvTZtsLet6FPW-156">
          <mxGeometry x="-0.2154" y="1" relative="1" as="geometry">
            <mxPoint as="offset" />
          </mxGeometry>
        </mxCell>
        <mxCell id="8Ivr_NgXvTZtsLet6FPW-170" style="edgeStyle=orthogonalEdgeStyle;rounded=0;orthogonalLoop=1;jettySize=auto;html=1;exitX=0.5;exitY=1;exitDx=0;exitDy=0;entryX=0.5;entryY=0;entryDx=0;entryDy=0;" edge="1" parent="1" source="8Ivr_NgXvTZtsLet6FPW-152" target="8Ivr_NgXvTZtsLet6FPW-173">
          <mxGeometry relative="1" as="geometry" />
        </mxCell>
        <mxCell id="8Ivr_NgXvTZtsLet6FPW-171" value="查询不到" style="edgeLabel;html=1;align=center;verticalAlign=middle;resizable=0;points=[];" vertex="1" connectable="0" parent="8Ivr_NgXvTZtsLet6FPW-170">
          <mxGeometry x="-0.0474" y="-1" relative="1" as="geometry">
            <mxPoint as="offset" />
          </mxGeometry>
        </mxCell>
        <mxCell id="8Ivr_NgXvTZtsLet6FPW-152" value="是否正确查询到客户信息" style="rhombus;whiteSpace=wrap;html=1;fillColor=#ffe6cc;strokeColor=#d79b00;rounded=0;" vertex="1" parent="1">
          <mxGeometry x="1038" y="1735" width="80" height="80" as="geometry" />
        </mxCell>
        <mxCell id="8Ivr_NgXvTZtsLet6FPW-230" style="edgeStyle=orthogonalEdgeStyle;rounded=0;orthogonalLoop=1;jettySize=auto;html=1;exitX=1;exitY=0.5;exitDx=0;exitDy=0;entryX=0;entryY=0.5;entryDx=0;entryDy=0;" edge="1" parent="1" source="8Ivr_NgXvTZtsLet6FPW-153" target="8Ivr_NgXvTZtsLet6FPW-224">
          <mxGeometry relative="1" as="geometry" />
        </mxCell>
        <mxCell id="8Ivr_NgXvTZtsLet6FPW-153" value="根据“识别客户”接口查询返回的手机号&amp;nbsp;&lt;br&gt;调用UCR&quot;OPEN-API-05查看客户详细信息接口（根据手机号查询)&quot;，接口返回客户详细信息&lt;div&gt;&lt;br&gt;&lt;/div&gt;&lt;div&gt;&lt;b&gt;&lt;font color=&quot;#cc0000&quot;&gt;同时保存至本地数据库&lt;/font&gt;&lt;/b&gt;&lt;br&gt;&lt;/div&gt;" style="rounded=0;whiteSpace=wrap;html=1;fillColor=#ffe6cc;strokeColor=#d79b00;" vertex="1" parent="1">
          <mxGeometry x="1600" y="1733" width="260" height="85" as="geometry" />
        </mxCell>
        <mxCell id="8Ivr_NgXvTZtsLet6FPW-175" style="edgeStyle=orthogonalEdgeStyle;rounded=0;orthogonalLoop=1;jettySize=auto;html=1;exitX=1;exitY=0.5;exitDx=0;exitDy=0;entryX=0;entryY=0.5;entryDx=0;entryDy=0;" edge="1" parent="1" source="8Ivr_NgXvTZtsLet6FPW-173" target="8Ivr_NgXvTZtsLet6FPW-174">
          <mxGeometry relative="1" as="geometry" />
        </mxCell>
        <mxCell id="8Ivr_NgXvTZtsLet6FPW-173" value="&lt;font face=&quot;PingFangSC-Regular&quot;&gt;&lt;span style=&quot;font-size: 13.3333px;&quot;&gt;跳转到注册页面&lt;/span&gt;&lt;/font&gt;" style="whiteSpace=wrap;html=1;rounded=0;" vertex="1" parent="1">
          <mxGeometry x="998" y="2061" width="160" height="60" as="geometry" />
        </mxCell>
        <mxCell id="8Ivr_NgXvTZtsLet6FPW-179" value="" style="edgeStyle=orthogonalEdgeStyle;rounded=0;orthogonalLoop=1;jettySize=auto;html=1;entryX=0;entryY=0.5;entryDx=0;entryDy=0;" edge="1" parent="1" source="8Ivr_NgXvTZtsLet6FPW-174" target="8Ivr_NgXvTZtsLet6FPW-190">
          <mxGeometry relative="1" as="geometry">
            <mxPoint x="1440" y="2090.9999999999995" as="targetPoint" />
          </mxGeometry>
        </mxCell>
        <mxCell id="8Ivr_NgXvTZtsLet6FPW-174" value="客户填写个人信息以及手机号，进行提交" style="whiteSpace=wrap;html=1;rounded=0;" vertex="1" parent="1">
          <mxGeometry x="1241" y="2061" width="120" height="60" as="geometry" />
        </mxCell>
        <mxCell id="8Ivr_NgXvTZtsLet6FPW-192" value="" style="edgeStyle=orthogonalEdgeStyle;rounded=0;orthogonalLoop=1;jettySize=auto;html=1;" edge="1" parent="1" source="8Ivr_NgXvTZtsLet6FPW-190" target="8Ivr_NgXvTZtsLet6FPW-191">
          <mxGeometry relative="1" as="geometry" />
        </mxCell>
        <mxCell id="8Ivr_NgXvTZtsLet6FPW-190" value="调用UCR&quot;OPEN-API-03识别客户接口（根据手机号）查询&quot;，接口会返回手机号和brandmemberId" style="rounded=0;whiteSpace=wrap;html=1;fillColor=#ffe6cc;strokeColor=#d79b00;" vertex="1" parent="1">
          <mxGeometry x="1540" y="2056" width="210" height="70" as="geometry" />
        </mxCell>
        <mxCell id="8Ivr_NgXvTZtsLet6FPW-194" value="" style="edgeStyle=orthogonalEdgeStyle;rounded=0;orthogonalLoop=1;jettySize=auto;html=1;" edge="1" parent="1" source="8Ivr_NgXvTZtsLet6FPW-191" target="8Ivr_NgXvTZtsLet6FPW-193">
          <mxGeometry relative="1" as="geometry" />
        </mxCell>
        <mxCell id="8Ivr_NgXvTZtsLet6FPW-198" value="查询不到" style="edgeLabel;html=1;align=center;verticalAlign=middle;resizable=0;points=[];" vertex="1" connectable="0" parent="8Ivr_NgXvTZtsLet6FPW-194">
          <mxGeometry y="-1" relative="1" as="geometry">
            <mxPoint as="offset" />
          </mxGeometry>
        </mxCell>
        <mxCell id="8Ivr_NgXvTZtsLet6FPW-202" style="edgeStyle=orthogonalEdgeStyle;rounded=0;orthogonalLoop=1;jettySize=auto;html=1;exitX=1;exitY=0.5;exitDx=0;exitDy=0;entryX=0;entryY=0.5;entryDx=0;entryDy=0;" edge="1" parent="1" source="8Ivr_NgXvTZtsLet6FPW-191" target="8Ivr_NgXvTZtsLet6FPW-200">
          <mxGeometry relative="1" as="geometry" />
        </mxCell>
        <mxCell id="8Ivr_NgXvTZtsLet6FPW-203" value="查询得到" style="edgeLabel;html=1;align=center;verticalAlign=middle;resizable=0;points=[];" vertex="1" connectable="0" parent="8Ivr_NgXvTZtsLet6FPW-202">
          <mxGeometry x="-0.0529" relative="1" as="geometry">
            <mxPoint as="offset" />
          </mxGeometry>
        </mxCell>
        <mxCell id="8Ivr_NgXvTZtsLet6FPW-191" value="是否正确查询到客户信息" style="rhombus;whiteSpace=wrap;html=1;fillColor=#ffe6cc;strokeColor=#d79b00;rounded=0;" vertex="1" parent="1">
          <mxGeometry x="1840" y="2051" width="80" height="80" as="geometry" />
        </mxCell>
        <mxCell id="8Ivr_NgXvTZtsLet6FPW-193" value="调用UCR“OPEN-API-10_注册综合场景接口”&lt;div&gt;&lt;br&gt;&lt;/div&gt;&lt;div&gt;&lt;b&gt;&lt;font color=&quot;#cc0000&quot;&gt;同时保存至本地数据库&lt;/font&gt;&lt;/b&gt;&lt;/div&gt;" style="whiteSpace=wrap;html=1;fillColor=#ffe6cc;strokeColor=#d79b00;rounded=0;" vertex="1" parent="1">
          <mxGeometry x="1780" y="1915" width="200" height="60" as="geometry" />
        </mxCell>
        <mxCell id="8Ivr_NgXvTZtsLet6FPW-200" value="" style="rounded=0;whiteSpace=wrap;html=1;dashed=1;" vertex="1" parent="1">
          <mxGeometry x="2046" y="2001" width="319" height="180" as="geometry" />
        </mxCell>
        <mxCell id="8Ivr_NgXvTZtsLet6FPW-207" style="edgeStyle=orthogonalEdgeStyle;rounded=0;orthogonalLoop=1;jettySize=auto;html=1;exitX=1;exitY=0.5;exitDx=0;exitDy=0;entryX=0;entryY=0.5;entryDx=0;entryDy=0;" edge="1" parent="1" source="8Ivr_NgXvTZtsLet6FPW-204" target="8Ivr_NgXvTZtsLet6FPW-205">
          <mxGeometry relative="1" as="geometry" />
        </mxCell>
        <mxCell id="8Ivr_NgXvTZtsLet6FPW-208" style="edgeStyle=orthogonalEdgeStyle;rounded=0;orthogonalLoop=1;jettySize=auto;html=1;exitX=1;exitY=0.5;exitDx=0;exitDy=0;entryX=0;entryY=0.5;entryDx=0;entryDy=0;" edge="1" parent="1" source="8Ivr_NgXvTZtsLet6FPW-204" target="8Ivr_NgXvTZtsLet6FPW-206">
          <mxGeometry relative="1" as="geometry" />
        </mxCell>
        <mxCell id="8Ivr_NgXvTZtsLet6FPW-204" value="提示客户，手机号已存在，是否更新个人信息，选择“保留”或者“更新”" style="whiteSpace=wrap;html=1;rounded=0;" vertex="1" parent="1">
          <mxGeometry x="2068" y="2061" width="120" height="60" as="geometry" />
        </mxCell>
        <mxCell id="8Ivr_NgXvTZtsLet6FPW-211" style="edgeStyle=orthogonalEdgeStyle;rounded=0;orthogonalLoop=1;jettySize=auto;html=1;exitX=1;exitY=0.5;exitDx=0;exitDy=0;entryX=0;entryY=0.5;entryDx=0;entryDy=0;" edge="1" parent="1" source="8Ivr_NgXvTZtsLet6FPW-205" target="8Ivr_NgXvTZtsLet6FPW-209">
          <mxGeometry relative="1" as="geometry" />
        </mxCell>
        <mxCell id="8Ivr_NgXvTZtsLet6FPW-205" value="&lt;font face=&quot;PingFangSC-Regular&quot;&gt;&lt;span style=&quot;font-size: 13.3333px;&quot;&gt;保留&lt;/span&gt;&lt;/font&gt;" style="whiteSpace=wrap;html=1;rounded=0;" vertex="1" parent="1">
          <mxGeometry x="2280" y="2036" width="50" height="40" as="geometry" />
        </mxCell>
        <mxCell id="8Ivr_NgXvTZtsLet6FPW-212" style="edgeStyle=orthogonalEdgeStyle;rounded=0;orthogonalLoop=1;jettySize=auto;html=1;exitX=1;exitY=0.5;exitDx=0;exitDy=0;entryX=0;entryY=0.5;entryDx=0;entryDy=0;" edge="1" parent="1" source="8Ivr_NgXvTZtsLet6FPW-206" target="8Ivr_NgXvTZtsLet6FPW-210">
          <mxGeometry relative="1" as="geometry" />
        </mxCell>
        <mxCell id="8Ivr_NgXvTZtsLet6FPW-206" value="&lt;font face=&quot;PingFangSC-Regular&quot;&gt;&lt;span style=&quot;font-size: 13.3333px;&quot;&gt;更新&lt;/span&gt;&lt;/font&gt;" style="whiteSpace=wrap;html=1;rounded=0;" vertex="1" parent="1">
          <mxGeometry x="2280" y="2111" width="50" height="40" as="geometry" />
        </mxCell>
        <mxCell id="8Ivr_NgXvTZtsLet6FPW-216" style="edgeStyle=orthogonalEdgeStyle;rounded=0;orthogonalLoop=1;jettySize=auto;html=1;exitX=1;exitY=0.5;exitDx=0;exitDy=0;entryX=0;entryY=0.5;entryDx=0;entryDy=0;" edge="1" parent="1" source="8Ivr_NgXvTZtsLet6FPW-209" target="8Ivr_NgXvTZtsLet6FPW-215">
          <mxGeometry relative="1" as="geometry" />
        </mxCell>
        <mxCell id="8Ivr_NgXvTZtsLet6FPW-209" value="调用UCR“OPEN-API-10_注册综合场景接口（仅绑定，根据手机号查询)”&lt;div&gt;&lt;br&gt;&lt;/div&gt;&lt;div&gt;&lt;b&gt;&lt;font color=&quot;#cc0000&quot;&gt;同时保存至本地数据库&lt;/font&gt;&lt;/b&gt;&lt;br&gt;&lt;/div&gt;" style="rounded=0;whiteSpace=wrap;html=1;fillColor=#FFBA85;strokeColor=#d79b00;" vertex="1" parent="1">
          <mxGeometry x="2440" y="2025" width="260" height="60" as="geometry" />
        </mxCell>
        <mxCell id="8Ivr_NgXvTZtsLet6FPW-218" style="edgeStyle=orthogonalEdgeStyle;rounded=0;orthogonalLoop=1;jettySize=auto;html=1;exitX=1;exitY=0.5;exitDx=0;exitDy=0;entryX=0;entryY=0.5;entryDx=0;entryDy=0;" edge="1" parent="1" source="8Ivr_NgXvTZtsLet6FPW-210" target="8Ivr_NgXvTZtsLet6FPW-215">
          <mxGeometry relative="1" as="geometry" />
        </mxCell>
        <mxCell id="8Ivr_NgXvTZtsLet6FPW-210" value="调用UCR“OPEN-API-10_注册综合场景接口（更新以及绑定，根据手机号查询)”&lt;div&gt;&lt;br&gt;&lt;/div&gt;&lt;div&gt;&lt;b&gt;&lt;font color=&quot;#cc0000&quot;&gt;同时保存至本地数据库&lt;/font&gt;&lt;/b&gt;&lt;br&gt;&lt;/div&gt;" style="rounded=0;whiteSpace=wrap;html=1;fillColor=#FFBA85;strokeColor=#d79b00;" vertex="1" parent="1">
          <mxGeometry x="2440" y="2101" width="260" height="60" as="geometry" />
        </mxCell>
        <mxCell id="8Ivr_NgXvTZtsLet6FPW-215" value="&lt;div&gt;&lt;span style=&quot;font-family: PingFangSC-Regular; font-size: 10pt;&quot;&gt;继续浏览⼩程序&lt;/span&gt;&lt;/div&gt;" style="whiteSpace=wrap;html=1;rounded=0;" vertex="1" parent="1">
          <mxGeometry x="2850" y="2061" width="160" height="60" as="geometry" />
        </mxCell>
        <mxCell id="8Ivr_NgXvTZtsLet6FPW-228" style="edgeStyle=orthogonalEdgeStyle;rounded=0;orthogonalLoop=1;jettySize=auto;html=1;exitX=1;exitY=0.5;exitDx=0;exitDy=0;entryX=0;entryY=0.5;entryDx=0;entryDy=0;" edge="1" parent="1" source="8Ivr_NgXvTZtsLet6FPW-223" target="8Ivr_NgXvTZtsLet6FPW-153">
          <mxGeometry relative="1" as="geometry" />
        </mxCell>
        <mxCell id="8Ivr_NgXvTZtsLet6FPW-223" value="&lt;font face=&quot;PingFangSC-Regular&quot;&gt;&lt;span style=&quot;font-size: 13.3333px;&quot;&gt;进入个人中心页面&lt;/span&gt;&lt;/font&gt;" style="whiteSpace=wrap;html=1;rounded=0;" vertex="1" parent="1">
          <mxGeometry x="1340" y="1745" width="160" height="60" as="geometry" />
        </mxCell>
        <mxCell id="8Ivr_NgXvTZtsLet6FPW-234" style="edgeStyle=orthogonalEdgeStyle;rounded=0;orthogonalLoop=1;jettySize=auto;html=1;exitX=1;exitY=0.5;exitDx=0;exitDy=0;entryX=0;entryY=0.5;entryDx=0;entryDy=0;" edge="1" parent="1" source="8Ivr_NgXvTZtsLet6FPW-224" target="8Ivr_NgXvTZtsLet6FPW-231">
          <mxGeometry relative="1" as="geometry" />
        </mxCell>
        <mxCell id="8Ivr_NgXvTZtsLet6FPW-224" value="&lt;div&gt;将客户信息填充在个人中心界面&lt;/div&gt;&lt;div&gt;&lt;br&gt;&lt;/div&gt;客户查看个人信息或重新更新个人信息后，进行提交" style="whiteSpace=wrap;html=1;rounded=0;" vertex="1" parent="1">
          <mxGeometry x="1999" y="1745" width="214" height="60" as="geometry" />
        </mxCell>
        <mxCell id="8Ivr_NgXvTZtsLet6FPW-235" style="edgeStyle=orthogonalEdgeStyle;rounded=0;orthogonalLoop=1;jettySize=auto;html=1;exitX=1;exitY=0.5;exitDx=0;exitDy=0;entryX=0;entryY=0.5;entryDx=0;entryDy=0;" edge="1" parent="1" source="8Ivr_NgXvTZtsLet6FPW-231" target="8Ivr_NgXvTZtsLet6FPW-233">
          <mxGeometry relative="1" as="geometry" />
        </mxCell>
        <mxCell id="8Ivr_NgXvTZtsLet6FPW-231" value="调用UCR“OPEN-API-10_注册综合场景接口（仅更新，根据手机号查询更新)”&lt;div&gt;&lt;br&gt;&lt;/div&gt;&lt;div&gt;&lt;b&gt;&lt;font color=&quot;#cc0000&quot;&gt;同时保存至本地数据库&lt;/font&gt;&lt;/b&gt;&lt;br&gt;&lt;/div&gt;" style="rounded=0;whiteSpace=wrap;html=1;fillColor=#FFBA85;strokeColor=#f1af09;" vertex="1" parent="1">
          <mxGeometry x="2340" y="1745.5" width="240" height="60" as="geometry" />
        </mxCell>
        <mxCell id="8Ivr_NgXvTZtsLet6FPW-233" value="&lt;div&gt;&lt;span style=&quot;font-family: PingFangSC-Regular; font-size: 10pt;&quot;&gt;继续浏览⼩程序&lt;/span&gt;&lt;/div&gt;" style="whiteSpace=wrap;html=1;rounded=0;" vertex="1" parent="1">
          <mxGeometry x="2700" y="1746" width="160" height="60" as="geometry" />
        </mxCell>
        <mxCell id="8Ivr_NgXvTZtsLet6FPW-244" style="edgeStyle=orthogonalEdgeStyle;rounded=0;orthogonalLoop=1;jettySize=auto;html=1;exitX=1;exitY=0.5;exitDx=0;exitDy=0;entryX=0;entryY=0.5;entryDx=0;entryDy=0;" edge="1" parent="1" source="8Ivr_NgXvTZtsLet6FPW-236" target="8Ivr_NgXvTZtsLet6FPW-239">
          <mxGeometry relative="1" as="geometry" />
        </mxCell>
        <mxCell id="8Ivr_NgXvTZtsLet6FPW-245" style="edgeStyle=orthogonalEdgeStyle;rounded=0;orthogonalLoop=1;jettySize=auto;html=1;exitX=1;exitY=0.5;exitDx=0;exitDy=0;entryX=0;entryY=0.5;entryDx=0;entryDy=0;" edge="1" parent="1" source="8Ivr_NgXvTZtsLet6FPW-236" target="8Ivr_NgXvTZtsLet6FPW-240">
          <mxGeometry relative="1" as="geometry" />
        </mxCell>
        <mxCell id="8Ivr_NgXvTZtsLet6FPW-246" style="edgeStyle=orthogonalEdgeStyle;rounded=0;orthogonalLoop=1;jettySize=auto;html=1;exitX=1;exitY=0.5;exitDx=0;exitDy=0;entryX=0;entryY=0.5;entryDx=0;entryDy=0;" edge="1" parent="1" source="8Ivr_NgXvTZtsLet6FPW-236" target="8Ivr_NgXvTZtsLet6FPW-241">
          <mxGeometry relative="1" as="geometry" />
        </mxCell>
        <mxCell id="8Ivr_NgXvTZtsLet6FPW-236" value="Zenith ZCard" style="rounded=1;whiteSpace=wrap;html=1;" vertex="1" parent="1">
          <mxGeometry x="20" y="2720" width="120" height="60" as="geometry" />
        </mxCell>
        <mxCell id="8Ivr_NgXvTZtsLet6FPW-239" value="&lt;font face=&quot;PingFangSC-Regular&quot;&gt;&lt;span style=&quot;font-size: 13.3333px;&quot;&gt;ipad 客户信息录入&lt;/span&gt;&lt;/font&gt;" style="rounded=0;whiteSpace=wrap;html=1;" vertex="1" parent="1">
          <mxGeometry x="385" y="2510" width="120" height="60" as="geometry" />
        </mxCell>
        <mxCell id="8Ivr_NgXvTZtsLet6FPW-240" value="&lt;font face=&quot;PingFangSC-Regular&quot;&gt;&lt;span style=&quot;font-size: 13.3333px;&quot;&gt;后端客户信息录入&lt;/span&gt;&lt;/font&gt;" style="rounded=0;whiteSpace=wrap;html=1;" vertex="1" parent="1">
          <mxGeometry x="385" y="2720" width="120" height="60" as="geometry" />
        </mxCell>
        <mxCell id="8Ivr_NgXvTZtsLet6FPW-241" value="&lt;font face=&quot;PingFangSC-Regular&quot;&gt;&lt;span style=&quot;font-size: 13.3333px;&quot;&gt;后端客户信息查询&lt;/span&gt;&lt;/font&gt;" style="rounded=0;whiteSpace=wrap;html=1;" vertex="1" parent="1">
          <mxGeometry x="385" y="2910" width="120" height="60" as="geometry" />
        </mxCell>
        <mxCell id="8Ivr_NgXvTZtsLet6FPW-251" style="edgeStyle=orthogonalEdgeStyle;rounded=0;orthogonalLoop=1;jettySize=auto;html=1;exitX=1;exitY=0.5;exitDx=0;exitDy=0;exitPerimeter=0;entryX=0;entryY=0.5;entryDx=0;entryDy=0;" edge="1" parent="1" source="8Ivr_NgXvTZtsLet6FPW-243" target="8Ivr_NgXvTZtsLet6FPW-250">
          <mxGeometry relative="1" as="geometry" />
        </mxCell>
        <mxCell id="8Ivr_NgXvTZtsLet6FPW-252" value="存在" style="edgeLabel;html=1;align=center;verticalAlign=middle;resizable=0;points=[];" vertex="1" connectable="0" parent="8Ivr_NgXvTZtsLet6FPW-251">
          <mxGeometry x="-0.1787" y="-2" relative="1" as="geometry">
            <mxPoint as="offset" />
          </mxGeometry>
        </mxCell>
        <mxCell id="8Ivr_NgXvTZtsLet6FPW-254" style="edgeStyle=orthogonalEdgeStyle;rounded=0;orthogonalLoop=1;jettySize=auto;html=1;exitX=1;exitY=0.5;exitDx=0;exitDy=0;exitPerimeter=0;entryX=0;entryY=0.5;entryDx=0;entryDy=0;" edge="1" parent="1" source="8Ivr_NgXvTZtsLet6FPW-243" target="8Ivr_NgXvTZtsLet6FPW-253">
          <mxGeometry relative="1" as="geometry" />
        </mxCell>
        <mxCell id="8Ivr_NgXvTZtsLet6FPW-262" value="不存在" style="edgeLabel;html=1;align=center;verticalAlign=middle;resizable=0;points=[];" vertex="1" connectable="0" parent="8Ivr_NgXvTZtsLet6FPW-254">
          <mxGeometry x="0.5446" relative="1" as="geometry">
            <mxPoint as="offset" />
          </mxGeometry>
        </mxCell>
        <mxCell id="8Ivr_NgXvTZtsLet6FPW-243" value="查看本地数据库中是否存在" style="shape=cylinder3;whiteSpace=wrap;html=1;boundedLbl=1;backgroundOutline=1;size=15;" vertex="1" parent="1">
          <mxGeometry x="679" y="2704" width="60" height="92" as="geometry" />
        </mxCell>
        <mxCell id="8Ivr_NgXvTZtsLet6FPW-247" style="edgeStyle=orthogonalEdgeStyle;rounded=0;orthogonalLoop=1;jettySize=auto;html=1;exitX=1;exitY=0.5;exitDx=0;exitDy=0;entryX=0;entryY=0.5;entryDx=0;entryDy=0;entryPerimeter=0;" edge="1" parent="1" source="8Ivr_NgXvTZtsLet6FPW-240" target="8Ivr_NgXvTZtsLet6FPW-243">
          <mxGeometry relative="1" as="geometry" />
        </mxCell>
        <mxCell id="8Ivr_NgXvTZtsLet6FPW-248" style="edgeStyle=orthogonalEdgeStyle;rounded=0;orthogonalLoop=1;jettySize=auto;html=1;exitX=1;exitY=0.5;exitDx=0;exitDy=0;entryX=0;entryY=0.5;entryDx=0;entryDy=0;entryPerimeter=0;" edge="1" parent="1" source="8Ivr_NgXvTZtsLet6FPW-239" target="8Ivr_NgXvTZtsLet6FPW-243">
          <mxGeometry relative="1" as="geometry" />
        </mxCell>
        <mxCell id="8Ivr_NgXvTZtsLet6FPW-249" style="edgeStyle=orthogonalEdgeStyle;rounded=0;orthogonalLoop=1;jettySize=auto;html=1;exitX=1;exitY=0.5;exitDx=0;exitDy=0;entryX=0;entryY=0.5;entryDx=0;entryDy=0;entryPerimeter=0;" edge="1" parent="1" source="8Ivr_NgXvTZtsLet6FPW-241" target="8Ivr_NgXvTZtsLet6FPW-243">
          <mxGeometry relative="1" as="geometry" />
        </mxCell>
        <mxCell id="8Ivr_NgXvTZtsLet6FPW-256" style="edgeStyle=orthogonalEdgeStyle;rounded=0;orthogonalLoop=1;jettySize=auto;html=1;exitX=0.5;exitY=1;exitDx=0;exitDy=0;" edge="1" parent="1" source="8Ivr_NgXvTZtsLet6FPW-250" target="8Ivr_NgXvTZtsLet6FPW-253">
          <mxGeometry relative="1" as="geometry" />
        </mxCell>
        <mxCell id="8Ivr_NgXvTZtsLet6FPW-257" value="不存在" style="edgeLabel;html=1;align=center;verticalAlign=middle;resizable=0;points=[];" vertex="1" connectable="0" parent="8Ivr_NgXvTZtsLet6FPW-256">
          <mxGeometry x="-0.1855" y="1" relative="1" as="geometry">
            <mxPoint y="-1" as="offset" />
          </mxGeometry>
        </mxCell>
        <mxCell id="8Ivr_NgXvTZtsLet6FPW-259" style="edgeStyle=orthogonalEdgeStyle;rounded=0;orthogonalLoop=1;jettySize=auto;html=1;exitX=1;exitY=0.5;exitDx=0;exitDy=0;entryX=0;entryY=0.5;entryDx=0;entryDy=0;" edge="1" parent="1" source="8Ivr_NgXvTZtsLet6FPW-250" target="8Ivr_NgXvTZtsLet6FPW-258">
          <mxGeometry relative="1" as="geometry" />
        </mxCell>
        <mxCell id="8Ivr_NgXvTZtsLet6FPW-250" value="判断客户在本地数据库中是否存在&lt;div&gt;brandmemberId&lt;/div&gt;" style="rhombus;whiteSpace=wrap;html=1;" vertex="1" parent="1">
          <mxGeometry x="993" y="2320" width="170" height="120" as="geometry" />
        </mxCell>
        <mxCell id="8Ivr_NgXvTZtsLet6FPW-264" style="edgeStyle=orthogonalEdgeStyle;rounded=0;orthogonalLoop=1;jettySize=auto;html=1;exitX=0.5;exitY=1;exitDx=0;exitDy=0;entryX=0.5;entryY=0;entryDx=0;entryDy=0;" edge="1" parent="1" source="8Ivr_NgXvTZtsLet6FPW-253" target="8Ivr_NgXvTZtsLet6FPW-263">
          <mxGeometry relative="1" as="geometry" />
        </mxCell>
        <mxCell id="8Ivr_NgXvTZtsLet6FPW-253" value="调用UCR&quot;OPEN-API-03识别客户接口（根据手机号）查询&quot;，接口会返回手机号和brandmemberId" style="rounded=0;whiteSpace=wrap;html=1;fillColor=#ffe6cc;strokeColor=#d79b00;" vertex="1" parent="1">
          <mxGeometry x="973" y="2715" width="210" height="70" as="geometry" />
        </mxCell>
        <mxCell id="8Ivr_NgXvTZtsLet6FPW-261" value="" style="edgeStyle=orthogonalEdgeStyle;rounded=0;orthogonalLoop=1;jettySize=auto;html=1;" edge="1" parent="1" source="8Ivr_NgXvTZtsLet6FPW-258" target="8Ivr_NgXvTZtsLet6FPW-260">
          <mxGeometry relative="1" as="geometry" />
        </mxCell>
        <mxCell id="8Ivr_NgXvTZtsLet6FPW-258" value="根据“识别客户”接口查询返回的手机号&amp;nbsp;&lt;br&gt;调用UCR&quot;OPEN-API-05查看客户详细信息接口（根据手机号查询)&quot;，接口返回客户详细信息&lt;div&gt;&lt;br&gt;&lt;/div&gt;&lt;div&gt;&lt;b&gt;&lt;font color=&quot;#cc0000&quot;&gt;同时保存至本地数据库&lt;/font&gt;&lt;/b&gt;&lt;br&gt;&lt;/div&gt;" style="rounded=0;whiteSpace=wrap;html=1;fillColor=#ffe6cc;strokeColor=#d79b00;" vertex="1" parent="1">
          <mxGeometry x="1360" y="2337.5" width="260" height="85" as="geometry" />
        </mxCell>
        <mxCell id="8Ivr_NgXvTZtsLet6FPW-260" value="end" style="whiteSpace=wrap;html=1;fillColor=#bac8d3;strokeColor=#23445d;rounded=0;" vertex="1" parent="1">
          <mxGeometry x="1770" y="2350" width="120" height="60" as="geometry" />
        </mxCell>
        <mxCell id="8Ivr_NgXvTZtsLet6FPW-267" style="edgeStyle=orthogonalEdgeStyle;rounded=0;orthogonalLoop=1;jettySize=auto;html=1;exitX=0.5;exitY=1;exitDx=0;exitDy=0;entryX=0.5;entryY=0;entryDx=0;entryDy=0;" edge="1" parent="1" source="8Ivr_NgXvTZtsLet6FPW-263" target="8Ivr_NgXvTZtsLet6FPW-266">
          <mxGeometry relative="1" as="geometry" />
        </mxCell>
        <mxCell id="8Ivr_NgXvTZtsLet6FPW-268" value="查询不到" style="edgeLabel;html=1;align=center;verticalAlign=middle;resizable=0;points=[];" vertex="1" connectable="0" parent="8Ivr_NgXvTZtsLet6FPW-267">
          <mxGeometry x="-0.1846" y="-1" relative="1" as="geometry">
            <mxPoint as="offset" />
          </mxGeometry>
        </mxCell>
        <mxCell id="8Ivr_NgXvTZtsLet6FPW-271" style="edgeStyle=orthogonalEdgeStyle;rounded=0;orthogonalLoop=1;jettySize=auto;html=1;exitX=1;exitY=0.5;exitDx=0;exitDy=0;entryX=0;entryY=0.5;entryDx=0;entryDy=0;" edge="1" parent="1" source="8Ivr_NgXvTZtsLet6FPW-263" target="8Ivr_NgXvTZtsLet6FPW-270">
          <mxGeometry relative="1" as="geometry" />
        </mxCell>
        <mxCell id="8Ivr_NgXvTZtsLet6FPW-285" value="查询得到" style="edgeLabel;html=1;align=center;verticalAlign=middle;resizable=0;points=[];" vertex="1" connectable="0" parent="8Ivr_NgXvTZtsLet6FPW-271">
          <mxGeometry x="-0.1755" y="-1" relative="1" as="geometry">
            <mxPoint as="offset" />
          </mxGeometry>
        </mxCell>
        <mxCell id="8Ivr_NgXvTZtsLet6FPW-263" value="是否查询到客户信息" style="rhombus;whiteSpace=wrap;html=1;fillColor=#ffe6cc;strokeColor=#d79b00;rounded=0;" vertex="1" parent="1">
          <mxGeometry x="1008" y="2840" width="140" height="80" as="geometry" />
        </mxCell>
        <mxCell id="8Ivr_NgXvTZtsLet6FPW-266" value="调用UCR“OPEN-API-10_注册综合场景接口”&lt;div&gt;&lt;br&gt;&lt;/div&gt;&lt;div&gt;&lt;b&gt;&lt;font color=&quot;#cc0000&quot;&gt;同时保存至本地数据库&lt;/font&gt;&lt;/b&gt;&lt;/div&gt;" style="whiteSpace=wrap;html=1;fillColor=#ffe6cc;strokeColor=#d79b00;rounded=0;" vertex="1" parent="1">
          <mxGeometry x="978" y="2970" width="200" height="60" as="geometry" />
        </mxCell>
        <mxCell id="8Ivr_NgXvTZtsLet6FPW-279" style="edgeStyle=orthogonalEdgeStyle;rounded=0;orthogonalLoop=1;jettySize=auto;html=1;exitX=1;exitY=0.5;exitDx=0;exitDy=0;entryX=0;entryY=0.5;entryDx=0;entryDy=0;" edge="1" parent="1" source="8Ivr_NgXvTZtsLet6FPW-270" target="8Ivr_NgXvTZtsLet6FPW-275">
          <mxGeometry relative="1" as="geometry" />
        </mxCell>
        <mxCell id="8Ivr_NgXvTZtsLet6FPW-280" style="edgeStyle=orthogonalEdgeStyle;rounded=0;orthogonalLoop=1;jettySize=auto;html=1;exitX=1;exitY=0.5;exitDx=0;exitDy=0;entryX=0;entryY=0.5;entryDx=0;entryDy=0;" edge="1" parent="1" source="8Ivr_NgXvTZtsLet6FPW-270" target="8Ivr_NgXvTZtsLet6FPW-277">
          <mxGeometry relative="1" as="geometry" />
        </mxCell>
        <mxCell id="8Ivr_NgXvTZtsLet6FPW-270" value="提示客户，手机号已存在，是否更新个人信息，选择“保留”或者“更新”" style="whiteSpace=wrap;html=1;rounded=0;" vertex="1" parent="1">
          <mxGeometry x="1290" y="2850" width="120" height="60" as="geometry" />
        </mxCell>
        <mxCell id="8Ivr_NgXvTZtsLet6FPW-287" style="edgeStyle=orthogonalEdgeStyle;rounded=0;orthogonalLoop=1;jettySize=auto;html=1;exitX=1;exitY=0.5;exitDx=0;exitDy=0;entryX=0;entryY=0.5;entryDx=0;entryDy=0;" edge="1" parent="1" source="8Ivr_NgXvTZtsLet6FPW-272" target="8Ivr_NgXvTZtsLet6FPW-274">
          <mxGeometry relative="1" as="geometry" />
        </mxCell>
        <mxCell id="8Ivr_NgXvTZtsLet6FPW-272" value="调用UCR“OPEN-API-10_注册综合场景接口（仅绑定，根据手机号查询)”&lt;div&gt;&lt;br&gt;&lt;/div&gt;&lt;div&gt;&lt;b&gt;&lt;font color=&quot;#cc0000&quot;&gt;同时保存至本地数据库&lt;/font&gt;&lt;/b&gt;&lt;br&gt;&lt;/div&gt;" style="rounded=0;whiteSpace=wrap;html=1;fillColor=#FFBA85;strokeColor=#d79b00;" vertex="1" parent="1">
          <mxGeometry x="1654" y="2810" width="260" height="60" as="geometry" />
        </mxCell>
        <mxCell id="8Ivr_NgXvTZtsLet6FPW-288" style="edgeStyle=orthogonalEdgeStyle;rounded=0;orthogonalLoop=1;jettySize=auto;html=1;exitX=1;exitY=0.5;exitDx=0;exitDy=0;" edge="1" parent="1" source="8Ivr_NgXvTZtsLet6FPW-273" target="8Ivr_NgXvTZtsLet6FPW-274">
          <mxGeometry relative="1" as="geometry" />
        </mxCell>
        <mxCell id="8Ivr_NgXvTZtsLet6FPW-273" value="调用UCR“OPEN-API-10_注册综合场景接口（更新以及绑定，根据手机号查询)”&lt;div&gt;&lt;br&gt;&lt;/div&gt;&lt;div&gt;&lt;b&gt;&lt;font color=&quot;#cc0000&quot;&gt;同时保存至本地数据库&lt;/font&gt;&lt;/b&gt;&lt;br&gt;&lt;/div&gt;" style="rounded=0;whiteSpace=wrap;html=1;fillColor=#FFBA85;strokeColor=#d79b00;" vertex="1" parent="1">
          <mxGeometry x="1654" y="2893" width="260" height="60" as="geometry" />
        </mxCell>
        <mxCell id="8Ivr_NgXvTZtsLet6FPW-274" value="end" style="whiteSpace=wrap;html=1;fillColor=#bac8d3;strokeColor=#23445d;rounded=0;" vertex="1" parent="1">
          <mxGeometry x="1999" y="2853" width="120" height="60" as="geometry" />
        </mxCell>
        <mxCell id="8Ivr_NgXvTZtsLet6FPW-281" style="edgeStyle=orthogonalEdgeStyle;rounded=0;orthogonalLoop=1;jettySize=auto;html=1;exitX=1;exitY=0.5;exitDx=0;exitDy=0;entryX=0;entryY=0.5;entryDx=0;entryDy=0;" edge="1" parent="1" source="8Ivr_NgXvTZtsLet6FPW-275" target="8Ivr_NgXvTZtsLet6FPW-272">
          <mxGeometry relative="1" as="geometry" />
        </mxCell>
        <mxCell id="8Ivr_NgXvTZtsLet6FPW-275" value="&lt;font face=&quot;PingFangSC-Regular&quot;&gt;&lt;span style=&quot;font-size: 13.3333px;&quot;&gt;保留&lt;/span&gt;&lt;/font&gt;" style="whiteSpace=wrap;html=1;rounded=0;" vertex="1" parent="1">
          <mxGeometry x="1500" y="2820" width="50" height="40" as="geometry" />
        </mxCell>
        <mxCell id="8Ivr_NgXvTZtsLet6FPW-286" style="edgeStyle=orthogonalEdgeStyle;rounded=0;orthogonalLoop=1;jettySize=auto;html=1;exitX=1;exitY=0.5;exitDx=0;exitDy=0;entryX=0;entryY=0.5;entryDx=0;entryDy=0;" edge="1" parent="1" source="8Ivr_NgXvTZtsLet6FPW-277" target="8Ivr_NgXvTZtsLet6FPW-273">
          <mxGeometry relative="1" as="geometry" />
        </mxCell>
        <mxCell id="8Ivr_NgXvTZtsLet6FPW-277" value="&lt;font face=&quot;PingFangSC-Regular&quot;&gt;&lt;span style=&quot;font-size: 13.3333px;&quot;&gt;更新&lt;/span&gt;&lt;/font&gt;" style="whiteSpace=wrap;html=1;rounded=0;" vertex="1" parent="1">
          <mxGeometry x="1500" y="2903" width="50" height="40" as="geometry" />
        </mxCell>
      </root>
    </mxGraphModel>
  </diagram>
</mxfile>
